<?xml version="1.0" encoding="UTF-8" standalone="no"?><!-- Generator: Gravit.io --><svg xmlns="http://www.w3.org/2000/svg" xmlns:xlink="http://www.w3.org/1999/xlink" style="isolation:isolate" viewBox="0 0 40 20" width="40pt" height="20pt"><defs><clipPath id="_clipPath_nwMyVGeYuRHQy7JAdOsGvWrqTKdhUkVi"><rect width="40" height="20"/></clipPath></defs><g clip-path="url(#_clipPath_nwMyVGeYuRHQy7JAdOsGvWrqTKdhUkVi)"><path d=" M 10.16 10.077 L 16.331 6.492 C 17.749 5.658 18.249 3.823 17.415 2.322 C 16.581 0.905 14.747 0.404 13.246 1.238 L 2.572 7.409 L 10.16 10.077 Z " fill="rgb(234,67,53)"/><path d=" M 14.747 19.166 C 15.831 19.166 16.831 18.583 17.332 17.665 C 18.166 16.248 17.665 14.33 16.248 13.496 L 5.574 7.325 C 4.156 6.492 2.239 6.992 1.405 8.409 C 0.571 9.827 1.071 11.745 2.489 12.579 L 13.162 18.75 C 13.746 19.083 14.246 19.166 14.747 19.166 Z " fill="rgb(66,133,244)"/><path d=" M 25.337 19.166 C 25.837 19.166 26.337 19 26.838 18.75 L 37.511 12.579 L 30.09 9.827 L 23.836 13.413 C 22.418 14.247 21.918 16.081 22.752 17.582 C 23.335 18.666 24.336 19.166 25.337 19.166 Z " fill="rgb(251,188,4)"/><path d=" M 36.01 13.079 C 37.094 13.079 38.095 12.495 38.595 11.578 C 39.429 10.161 38.929 8.243 37.511 7.409 L 26.838 1.238 C 25.42 0.404 23.502 0.905 22.668 2.322 C 21.834 3.74 22.335 5.658 23.752 6.492 L 34.426 12.662 C 34.926 12.912 35.51 13.079 36.01 13.079 Z " fill="rgb(15,157,88)"/></g></svg>